<?xml version="1.0" encoding="UTF-8" standalone="no"?>
<svg width="600" height="400" viewBox="0 0 600 400" fill="none" xmlns="http://www.w3.org/2000/svg">
  <rect width="600" height="400" fill="#F3F4F6"/>
  <rect x="20" y="20" width="560" height="360" rx="8" fill="white" stroke="#E5E7EB" stroke-width="2"/>
  
  <!-- Header -->
  <rect x="20" y="20" width="560" height="60" rx="8" fill="#F9FAFB"/>
  <rect x="40" y="40" width="120" height="20" rx="4" fill="#E5E7EB"/>
  <rect x="440" y="40" width="40" height="20" rx="4" fill="#E5E7EB"/>
  <rect x="500" y="40" width="60" height="20" rx="4" fill="#E5E7EB"/>
  
  <!-- Sidebar -->
  <rect x="20" y="80" width="160" height="300" rx="0" fill="#F9FAFB"/>
  <rect x="40" y="100" width="120" height="10" rx="2" fill="#E5E7EB"/>
  <rect x="40" y="120" width="120" height="10" rx="2" fill="#E5E7EB"/>
  <rect x="40" y="140" width="120" height="10" rx="2" fill="#E5E7EB"/>
  <rect x="40" y="160" width="120" height="10" rx="2" fill="#E5E7EB"/>
  <rect x="40" y="180" width="120" height="10" rx="2" fill="#E5E7EB"/>
  <rect x="40" y="200" width="120" height="10" rx="2" fill="#E5E7EB"/>
  <rect x="40" y="220" width="120" height="10" rx="2" fill="#E5E7EB"/>
  
  <!-- Main Content -->
  <rect x="200" y="100" width="360" height="40" rx="4" fill="#F3F4F6"/>
  <rect x="220" y="115" width="200" height="10" rx="2" fill="#D1D5DB"/>
  
  <!-- Cards -->
  <rect x="200" y="160" width="170" height="100" rx="8" fill="#F9FAFB" stroke="#E5E7EB" stroke-width="1"/>
  <rect x="220" y="180" width="80" height="10" rx="2" fill="#D1D5DB"/>
  <rect x="220" y="200" width="130" height="20" rx="2" fill="#E5E7EB"/>
  <rect x="220" y="230" width="60" height="10" rx="2" fill="#D1D5DB"/>
  
  <rect x="390" y="160" width="170" height="100" rx="8" fill="#F9FAFB" stroke="#E5E7EB" stroke-width="1"/>
  <rect x="410" y="180" width="80" height="10" rx="2" fill="#D1D5DB"/>
  <rect x="410" y="200" width="130" height="20" rx="2" fill="#E5E7EB"/>
  <rect x="410" y="230" width="60" height="10" rx="2" fill="#D1D5DB"/>
  
  <rect x="200" y="280" width="170" height="100" rx="8" fill="#F9FAFB" stroke="#E5E7EB" stroke-width="1"/>
  <rect x="220" y="300" width="80" height="10" rx="2" fill="#D1D5DB"/>
  <rect x="220" y="320" width="130" height="20" rx="2" fill="#E5E7EB"/>
  <rect x="220" y="350" width="60" height="10" rx="2" fill="#D1D5DB"/>
  
  <rect x="390" y="280" width="170" height="100" rx="8" fill="#F9FAFB" stroke="#E5E7EB" stroke-width="1"/>
  <rect x="410" y="300" width="80" height="10" rx="2" fill="#D1D5DB"/>
  <rect x="410" y="320" width="130" height="20" rx="2" fill="#E5E7EB"/>
  <rect x="410" y="350" width="60" height="10" rx="2" fill="#D1D5DB"/>
  
  <!-- AI Icon -->
  <circle cx="300" cy="200" r="15" fill="#6366F1" opacity="0.2"/>
  <path d="M300 190 L300 210 M290 200 L310 200" stroke="#6366F1" stroke-width="2"/>
  
  <circle cx="490" cy="200" r="15" fill="#6366F1" opacity="0.2"/>
  <path d="M490 190 L490 210 M480 200 L500 200" stroke="#6366F1" stroke-width="2"/>
  
  <circle cx="300" cy="320" r="15" fill="#6366F1" opacity="0.2"/>
  <path d="M300 310 L300 330 M290 320 L310 320" stroke="#6366F1" stroke-width="2"/>
  
  <circle cx="490" cy="320" r="15" fill="#6366F1" opacity="0.2"/>
  <path d="M490 310 L490 330 M480 320 L500 320" stroke="#6366F1" stroke-width="2"/>
  
  <!-- Text Label -->
  <text x="300" y="380" font-family="Arial" font-size="14" text-anchor="middle" fill="#6B7280">BusinessOS Dashboard</text>
</svg>
