<?xml version="1.0" encoding="UTF-8" standalone="no"?>
<svg width="400" height="300" viewBox="0 0 400 300" fill="none" xmlns="http://www.w3.org/2000/svg">
  <!-- Background -->
  <rect width="400" height="300" rx="12" fill="#F9FAFB"/>
  
  <!-- Chat Container -->
  <rect x="30" y="30" width="340" height="240" rx="8" fill="white" stroke="#E5E7EB" stroke-width="2"/>
  
  <!-- Chat Title -->
  <rect x="50" y="50" width="150" height="20" rx="4" fill="#6366F1" fill-opacity="0.1"/>
  <rect x="50" y="50" width="120" height="20" rx="4" fill="#6366F1" fill-opacity="0.8"/>
  
  <!-- User Message -->
  <rect x="50" y="90" width="200" height="40" rx="8" fill="#F3F4F6"/>
  <rect x="70" y="105" width="160" height="10" rx="2" fill="#D1D5DB"/>
  
  <!-- AI Response -->
  <rect x="50" y="140" width="280" height="60" rx="8" fill="#6366F1" fill-opacity="0.1"/>
  <rect x="70" y="155" width="240" height="10" rx="2" fill="#6366F1"/>
  <rect x="70" y="175" width="200" height="10" rx="2" fill="#6366F1"/>
  
  <!-- AI Brain Icon -->
  <circle cx="330" cy="170" r="20" fill="#6366F1" fill-opacity="0.2"/>
  <path d="M330 155 C325 155 320 160 320 165 C320 168 322 171 325 172 L325 180 L335 180 L335 172 C338 171 340 168 340 165 C340 160 335 155 330 155 Z" fill="#6366F1"/>
  <path d="M325 180 L325 185 L335 185 L335 180" stroke="#6366F1" stroke-width="2"/>
  <path d="M330 185 L330 190" stroke="#6366F1" stroke-width="2"/>
  <path d="M325 190 L335 190" stroke="#6366F1" stroke-width="2"/>
  
  <!-- Input Field -->
  <rect x="50" y="220" width="280" height="40" rx="8" fill="#F3F4F6"/>
  <rect x="70" y="235" width="200" height="10" rx="2" fill="#D1D5DB"/>
  <circle cx="310" cy="240" r="15" fill="#6366F1"/>
  <path d="M305 240 L315 240 M310 235 L310 245" stroke="white" stroke-width="2"/>
</svg>
