<?xml version="1.0" encoding="UTF-8" standalone="no"?>
<svg width="400" height="300" viewBox="0 0 400 300" fill="none" xmlns="http://www.w3.org/2000/svg">
  <!-- Document Background -->
  <rect width="400" height="300" rx="12" fill="#F9FAFB"/>
  
  <!-- Document -->
  <rect x="50" y="30" width="300" height="240" rx="8" fill="white" stroke="#E5E7EB" stroke-width="2"/>
  
  <!-- Document Header -->
  <rect x="70" y="50" width="200" height="20" rx="4" fill="#6366F1" fill-opacity="0.1"/>
  <rect x="70" y="50" width="150" height="20" rx="4" fill="#6366F1" fill-opacity="0.8"/>
  
  <!-- Document Content -->
  <rect x="70" y="90" width="260" height="10" rx="2" fill="#D1D5DB"/>
  <rect x="70" y="110" width="260" height="10" rx="2" fill="#D1D5DB"/>
  <rect x="70" y="130" width="200" height="10" rx="2" fill="#D1D5DB"/>
  
  <!-- AI Analysis Section -->
  <rect x="70" y="160" width="260" height="80" rx="4" fill="#F3F4F6"/>
  <rect x="90" y="170" width="100" height="15" rx="2" fill="#6366F1" fill-opacity="0.8"/>
  
  <!-- AI Tags -->
  <rect x="90" y="195" width="60" height="20" rx="10" fill="#6366F1" fill-opacity="0.2"/>
  <rect x="160" y="195" width="60" height="20" rx="10" fill="#6366F1" fill-opacity="0.2"/>
  <rect x="230" y="195" width="60" height="20" rx="10" fill="#6366F1" fill-opacity="0.2"/>
  
  <!-- AI Brain Icon -->
  <circle cx="320" cy="200" r="20" fill="#6366F1" fill-opacity="0.1"/>
  <path d="M320 185 C315 185 310 190 310 195 C310 198 312 201 315 202 L315 210 L325 210 L325 202 C328 201 330 198 330 195 C330 190 325 185 320 185 Z" fill="#6366F1"/>
  <path d="M315 210 L315 215 L325 215 L325 210" stroke="#6366F1" stroke-width="2"/>
  <path d="M320 215 L320 220" stroke="#6366F1" stroke-width="2"/>
  <path d="M315 220 L325 220" stroke="#6366F1" stroke-width="2"/>
</svg>
