<?xml version="1.0" encoding="UTF-8" standalone="no"?>
<svg width="800" height="500" viewBox="0 0 800 500" fill="none" xmlns="http://www.w3.org/2000/svg">
  <!-- Background -->
  <rect width="800" height="500" rx="12" fill="#F9FAFB"/>
  
  <!-- Dashboard Frame -->
  <rect x="10" y="10" width="780" height="480" rx="8" fill="white" stroke="#E5E7EB" stroke-width="1"/>
  
  <!-- Top Navigation Bar -->
  <rect x="10" y="10" width="780" height="60" rx="8" fill="#F8FAFC"/>
  <rect x="30" y="30" width="140" height="20" rx="4" fill="#6366F1"/>
  <rect x="200" y="30" width="80" height="20" rx="4" fill="#E5E7EB"/>
  <rect x="300" y="30" width="80" height="20" rx="4" fill="#E5E7EB"/>
  <rect x="400" y="30" width="80" height="20" rx="4" fill="#E5E7EB"/>
  <circle cx="740" cy="40" r="20" fill="#F3F4F6"/>
  <circle cx="740" cy="40" r="8" fill="#6366F1"/>
  <rect x="680" y="30" width="40" height="20" rx="4" fill="#E5E7EB"/>
  
  <!-- Left Sidebar -->
  <rect x="10" y="70" width="200" height="420" rx="0" fill="#F8FAFC"/>
  <rect x="30" y="100" width="160" height="12" rx="2" fill="#E5E7EB"/>
  <rect x="30" y="130" width="160" height="12" rx="2" fill="#E5E7EB"/>
  <rect x="30" y="160" width="160" height="12" rx="2" fill="#E5E7EB"/>
  <rect x="30" y="190" width="160" height="12" rx="2" fill="#E5E7EB"/>
  <rect x="30" y="220" width="160" height="12" rx="2" fill="#E5E7EB"/>
  <rect x="30" y="250" width="160" height="12" rx="2" fill="#E5E7EB"/>
  <rect x="30" y="280" width="160" height="12" rx="2" fill="#E5E7EB"/>
  
  <!-- Main Content Area -->
  <rect x="230" y="90" width="540" height="40" rx="8" fill="#F3F4F6"/>
  <rect x="250" y="105" width="200" height="10" rx="2" fill="#D1D5DB"/>
  <rect x="650" y="100" width="100" height="20" rx="4" fill="#6366F1"/>
  
  <!-- Dashboard Cards Row 1 -->
  <rect x="230" y="150" width="260" height="120" rx="8" fill="white" stroke="#E5E7EB" stroke-width="1"/>
  <rect x="250" y="170" width="100" height="16" rx="2" fill="#6366F1" fill-opacity="0.1"/>
  <rect x="250" y="170" width="100" height="16" rx="2" fill="#6366F1" fill-opacity="0.8"/>
  <rect x="250" y="200" width="180" height="24" rx="2" fill="#111827"/>
  <rect x="250" y="240" width="120" height="10" rx="2" fill="#D1D5DB"/>
  <circle cx="450" cy="210" r="30" fill="#F3F4F6"/>
  <path d="M450 190 L450 230 M430 210 L470 210" stroke="#6366F1" stroke-width="4"/>
  
  <rect x="510" y="150" width="260" height="120" rx="8" fill="white" stroke="#E5E7EB" stroke-width="1"/>
  <rect x="530" y="170" width="100" height="16" rx="2" fill="#6366F1" fill-opacity="0.1"/>
  <rect x="530" y="170" width="100" height="16" rx="2" fill="#6366F1" fill-opacity="0.8"/>
  <rect x="530" y="200" width="180" height="24" rx="2" fill="#111827"/>
  <rect x="530" y="240" width="120" height="10" rx="2" fill="#D1D5DB"/>
  <circle cx="730" cy="210" r="30" fill="#F3F4F6"/>
  <path d="M730 190 L730 230 M710 210 L750 210" stroke="#6366F1" stroke-width="4"/>
  
  <!-- Dashboard Cards Row 2 -->
  <rect x="230" y="290" width="260" height="180" rx="8" fill="white" stroke="#E5E7EB" stroke-width="1"/>
  <rect x="250" y="310" width="100" height="16" rx="2" fill="#6366F1" fill-opacity="0.1"/>
  <rect x="250" y="310" width="100" height="16" rx="2" fill="#6366F1" fill-opacity="0.8"/>
  <rect x="250" y="340" width="220" height="110" rx="4" fill="#F9FAFB"/>
  
  <!-- Chart Elements -->
  <rect x="270" y="400" width="20" height="30" rx="2" fill="#6366F1"/>
  <rect x="300" y="380" width="20" height="50" rx="2" fill="#6366F1"/>
  <rect x="330" y="360" width="20" height="70" rx="2" fill="#6366F1"/>
  <rect x="360" y="390" width="20" height="40" rx="2" fill="#6366F1"/>
  <rect x="390" y="370" width="20" height="60" rx="2" fill="#6366F1"/>
  <rect x="420" y="350" width="20" height="80" rx="2" fill="#6366F1"/>
  
  <rect x="510" y="290" width="260" height="180" rx="8" fill="white" stroke="#E5E7EB" stroke-width="1"/>
  <rect x="530" y="310" width="100" height="16" rx="2" fill="#6366F1" fill-opacity="0.1"/>
  <rect x="530" y="310" width="100" height="16" rx="2" fill="#6366F1" fill-opacity="0.8"/>
  <rect x="530" y="340" width="220" height="110" rx="4" fill="#F9FAFB"/>
  
  <!-- Pie Chart Elements -->
  <path d="M640 395 L640 340 A55 55 0 0 1 687 378 Z" fill="#6366F1"/>
  <path d="M640 395 L687 378 A55 55 0 0 1 640 450 Z" fill="#8B5CF6"/>
  <path d="M640 395 L640 450 A55 55 0 0 1 593 378 Z" fill="#EC4899"/>
  <path d="M640 395 L593 378 A55 55 0 0 1 640 340 Z" fill="#F59E0B"/>
  
  <!-- AI Elements -->
  <circle cx="450" cy="380" r="15" fill="#6366F1" fill-opacity="0.2"/>
  <path d="M450 370 L450 390 M440 380 L460 380" stroke="#6366F1" stroke-width="2"/>
  
  <circle cx="730" cy="380" r="15" fill="#6366F1" fill-opacity="0.2"/>
  <path d="M730 370 L730 390 M720 380 L740 380" stroke="#6366F1" stroke-width="2"/>
  
  <!-- Text Label -->
  <text x="400" y="480" font-family="Arial" font-size="14" text-anchor="middle" fill="#6B7280">BusinessOS AI-Powered Dashboard</text>
</svg>
