<?xml version="1.0" encoding="UTF-8" standalone="no"?>
<svg width="400" height="300" viewBox="0 0 400 300" fill="none" xmlns="http://www.w3.org/2000/svg">
  <!-- Background -->
  <rect width="400" height="300" rx="12" fill="#F9FAFB"/>
  
  <!-- Chart Container -->
  <rect x="30" y="30" width="340" height="240" rx="8" fill="white" stroke="#E5E7EB" stroke-width="2"/>
  
  <!-- Chart Title -->
  <rect x="50" y="50" width="150" height="20" rx="4" fill="#6366F1" fill-opacity="0.1"/>
  <rect x="50" y="50" width="120" height="20" rx="4" fill="#6366F1" fill-opacity="0.8"/>
  
  <!-- Chart Grid -->
  <line x1="50" y1="100" x2="350" y2="100" stroke="#E5E7EB" stroke-width="1"/>
  <line x1="50" y1="140" x2="350" y2="140" stroke="#E5E7EB" stroke-width="1"/>
  <line x1="50" y1="180" x2="350" y2="180" stroke="#E5E7EB" stroke-width="1"/>
  <line x1="50" y1="220" x2="350" y2="220" stroke="#E5E7EB" stroke-width="1"/>
  
  <!-- Chart Bars -->
  <rect x="70" y="160" width="30" height="60" rx="4" fill="#6366F1"/>
  <rect x="110" y="140" width="30" height="80" rx="4" fill="#6366F1"/>
  <rect x="150" y="120" width="30" height="100" rx="4" fill="#6366F1"/>
  <rect x="190" y="180" width="30" height="40" rx="4" fill="#6366F1"/>
  <rect x="230" y="100" width="30" height="120" rx="4" fill="#6366F1"/>
  <rect x="270" y="130" width="30" height="90" rx="4" fill="#6366F1"/>
  <rect x="310" y="150" width="30" height="70" rx="4" fill="#6366F1"/>
  
  <!-- Chart Line -->
  <path d="M85 130 L125 110 L165 90 L205 150 L245 70 L285 100 L325 120" stroke="#F59E0B" stroke-width="3" stroke-linecap="round" stroke-linejoin="round"/>
  <circle cx="85" cy="130" r="4" fill="#F59E0B"/>
  <circle cx="125" cy="110" r="4" fill="#F59E0B"/>
  <circle cx="165" cy="90" r="4" fill="#F59E0B"/>
  <circle cx="205" cy="150" r="4" fill="#F59E0B"/>
  <circle cx="245" cy="70" r="4" fill="#F59E0B"/>
  <circle cx="285" cy="100" r="4" fill="#F59E0B"/>
  <circle cx="325" cy="120" r="4" fill="#F59E0B"/>
  
  <!-- AI Insight Icon -->
  <circle cx="330" cy="50" r="15" fill="#6366F1" fill-opacity="0.1"/>
  <path d="M330 40 L330 60 M320 50 L340 50" stroke="#6366F1" stroke-width="2"/>
</svg>
