<?xml version="1.0" encoding="UTF-8" standalone="no"?>
<svg width="400" height="300" viewBox="0 0 400 300" fill="none" xmlns="http://www.w3.org/2000/svg">
  <!-- Background -->
  <rect width="400" height="300" rx="12" fill="#F9FAFB"/>
  
  <!-- HR Dashboard Container -->
  <rect x="30" y="30" width="340" height="240" rx="8" fill="white" stroke="#E5E7EB" stroke-width="2"/>
  
  <!-- Dashboard Title -->
  <rect x="50" y="50" width="150" height="20" rx="4" fill="#6366F1" fill-opacity="0.1"/>
  <rect x="50" y="50" width="120" height="20" rx="4" fill="#6366F1" fill-opacity="0.8"/>
  
  <!-- Employee Cards -->
  <rect x="50" y="90" width="90" height="120" rx="8" fill="#F3F4F6"/>
  <circle cx="95" cy="120" r="20" fill="#6366F1" fill-opacity="0.2"/>
  <path d="M95 110 C92 110 90 112 90 115 C90 118 92 120 95 120 C98 120 100 118 100 115 C100 112 98 110 95 110 Z" fill="#6366F1"/>
  <path d="M85 130 C85 125 90 122 95 122 C100 122 105 125 105 130 L105 140 L85 140 L85 130 Z" fill="#6366F1"/>
  <rect x="70" y="150" width="50" height="10" rx="2" fill="#D1D5DB"/>
  <rect x="70" y="170" width="30" height="10" rx="2" fill="#D1D5DB"/>
  
  <rect x="150" y="90" width="90" height="120" rx="8" fill="#F3F4F6"/>
  <circle cx="195" cy="120" r="20" fill="#6366F1" fill-opacity="0.2"/>
  <path d="M195 110 C192 110 190 112 190 115 C190 118 192 120 195 120 C198 120 200 118 200 115 C200 112 198 110 195 110 Z" fill="#6366F1"/>
  <path d="M185 130 C185 125 190 122 195 122 C200 122 205 125 205 130 L205 140 L185 140 L185 130 Z" fill="#6366F1"/>
  <rect x="170" y="150" width="50" height="10" rx="2" fill="#D1D5DB"/>
  <rect x="170" y="170" width="30" height="10" rx="2" fill="#D1D5DB"/>
  
  <rect x="250" y="90" width="90" height="120" rx="8" fill="#F3F4F6"/>
  <circle cx="295" cy="120" r="20" fill="#6366F1" fill-opacity="0.2"/>
  <path d="M295 110 C292 110 290 112 290 115 C290 118 292 120 295 120 C298 120 300 118 300 115 C300 112 298 110 295 110 Z" fill="#6366F1"/>
  <path d="M285 130 C285 125 290 122 295 122 C300 122 305 125 305 130 L305 140 L285 140 L285 130 Z" fill="#6366F1"/>
  <rect x="270" y="150" width="50" height="10" rx="2" fill="#D1D5DB"/>
  <rect x="270" y="170" width="30" height="10" rx="2" fill="#D1D5DB"/>
  
  <!-- Department Structure -->
  <rect x="50" y="230" width="290" height="30" rx="4" fill="#F3F4F6"/>
  <rect x="60" y="240" width="80" height="10" rx="2" fill="#6366F1" fill-opacity="0.8"/>
  <rect x="150" y="240" width="80" height="10" rx="2" fill="#6366F1" fill-opacity="0.4"/>
  <rect x="240" y="240" width="80" height="10" rx="2" fill="#6366F1" fill-opacity="0.2"/>
  
  <!-- AI Icon -->
  <circle cx="330" cy="50" r="15" fill="#6366F1" fill-opacity="0.1"/>
  <path d="M330 40 L330 60 M320 50 L340 50" stroke="#6366F1" stroke-width="2"/>
</svg>
