<?xml version="1.0" encoding="UTF-8" standalone="no"?>
<svg width="400" height="300" viewBox="0 0 400 300" fill="none" xmlns="http://www.w3.org/2000/svg">
  <!-- Background -->
  <rect width="400" height="300" rx="12" fill="#F9FAFB"/>
  
  <!-- Project Board Container -->
  <rect x="30" y="30" width="340" height="240" rx="8" fill="white" stroke="#E5E7EB" stroke-width="2"/>
  
  <!-- Board Title -->
  <rect x="50" y="50" width="150" height="20" rx="4" fill="#6366F1" fill-opacity="0.1"/>
  <rect x="50" y="50" width="120" height="20" rx="4" fill="#6366F1" fill-opacity="0.8"/>
  
  <!-- Kanban Columns -->
  <rect x="50" y="90" width="90" height="160" rx="8" fill="#F3F4F6"/>
  <rect x="60" y="100" width="70" height="15" rx="2" fill="#6366F1" fill-opacity="0.8"/>
  
  <rect x="150" y="90" width="90" height="160" rx="8" fill="#F3F4F6"/>
  <rect x="160" y="100" width="70" height="15" rx="2" fill="#8B5CF6" fill-opacity="0.8"/>
  
  <rect x="250" y="90" width="90" height="160" rx="8" fill="#F3F4F6"/>
  <rect x="260" y="100" width="70" height="15" rx="2" fill="#10B981" fill-opacity="0.8"/>
  
  <!-- Task Cards -->
  <rect x="55" y="125" width="80" height="50" rx="4" fill="white" stroke="#E5E7EB" stroke-width="1"/>
  <rect x="65" y="135" width="60" height="10" rx="2" fill="#D1D5DB"/>
  <rect x="65" y="155" width="40" height="10" rx="2" fill="#D1D5DB"/>
  
  <rect x="55" y="185" width="80" height="50" rx="4" fill="white" stroke="#E5E7EB" stroke-width="1"/>
  <rect x="65" y="195" width="60" height="10" rx="2" fill="#D1D5DB"/>
  <rect x="65" y="215" width="40" height="10" rx="2" fill="#D1D5DB"/>
  
  <rect x="155" y="125" width="80" height="50" rx="4" fill="white" stroke="#E5E7EB" stroke-width="1"/>
  <rect x="165" y="135" width="60" height="10" rx="2" fill="#D1D5DB"/>
  <rect x="165" y="155" width="40" height="10" rx="2" fill="#D1D5DB"/>
  
  <rect x="155" y="185" width="80" height="50" rx="4" fill="white" stroke="#E5E7EB" stroke-width="1"/>
  <rect x="165" y="195" width="60" height="10" rx="2" fill="#D1D5DB"/>
  <rect x="165" y="215" width="40" height="10" rx="2" fill="#D1D5DB"/>
  
  <rect x="255" y="125" width="80" height="50" rx="4" fill="white" stroke="#E5E7EB" stroke-width="1"/>
  <rect x="265" y="135" width="60" height="10" rx="2" fill="#D1D5DB"/>
  <rect x="265" y="155" width="40" height="10" rx="2" fill="#D1D5DB"/>
  
  <!-- AI Suggestion Icon -->
  <circle cx="330" cy="50" r="15" fill="#6366F1" fill-opacity="0.1"/>
  <path d="M330 40 L330 60 M320 50 L340 50" stroke="#6366F1" stroke-width="2"/>
</svg>
